HIERARCHY
ROOT Hips
{
    OFFSET 0.000000 0.000000 0.000000
    CHANNELS 6 Xposition Yposition Zposition Zrotation Xrotation Yrotation
    JOINT Spine
    {
        OFFSET -0.000000 7.761268 0.000000
        CHANNELS 3 Zrotation Xrotation Yrotation
        JOINT Spine1
        {
            OFFSET -0.000000 24.785763 0.000000
            CHANNELS 3 Zrotation Xrotation Yrotation
            JOINT Neck
            {
                OFFSET -0.000000 24.683973 2.243998
                CHANNELS 3 Zrotation Xrotation Yrotation
                JOINT Head
                {
                    OFFSET -0.000000 13.250945 -1.892992
                    CHANNELS 3 Zrotation Xrotation Yrotation
                    End Site
                    {
                        OFFSET -0.000000 23.662401 0.000000
                    }
                }
            }
            JOINT LeftShoulder
            {
                OFFSET 3.794134 23.444212 -0.177979
                CHANNELS 3 Zrotation Xrotation Yrotation
                JOINT LeftArm
                {
                    OFFSET 9.211075 0.000000 0.000000
                    CHANNELS 3 Zrotation Xrotation Yrotation
                    JOINT LeftForeArm
                    {
                        OFFSET 34.352840 0.000000 0.000000
                        CHANNELS 3 Zrotation Xrotation Yrotation
                        JOINT LeftHand
                        {
                            OFFSET 25.460636 0.000000 0.000000
                            CHANNELS 3 Zrotation Xrotation Yrotation
                            End Site
                            {
                                OFFSET 14.197442 0.000000 0.000000
                            }
                        }
                    }
                }
            }
            JOINT RightShoulder
            {
                OFFSET -3.767389 23.444212 -0.177979
                CHANNELS 3 Zrotation Xrotation Yrotation
                JOINT RightArm
                {
                    OFFSET -9.211075 0.000000 0.000000
                    CHANNELS 3 Zrotation Xrotation Yrotation
                    JOINT RightForeArm
                    {
                        OFFSET -34.352840 0.000000 0.000000
                        CHANNELS 3 Zrotation Xrotation Yrotation
                        JOINT RightHand
                        {
                            OFFSET -25.460636 0.000000 0.000000
                            CHANNELS 3 Zrotation Xrotation Yrotation
                            End Site
                            {
                                OFFSET -14.197442 0.000000 0.000000
                            }
                        }
                    }
                }
            }
        }
    }
    JOINT LeftUpLeg
    {
        OFFSET 9.464960 0.000000 0.000000
        CHANNELS 3 Zrotation Xrotation Yrotation
        JOINT LeftLeg
        {
            OFFSET -0.000000 -36.073700 0.000000
            CHANNELS 3 Zrotation Xrotation Yrotation
            JOINT LeftFoot
            {
                OFFSET -0.000000 -40.808823 0.000000
                CHANNELS 3 Zrotation Xrotation Yrotation
                JOINT LeftToeBase
                {
                    OFFSET -0.000000 -6.152224 14.197442
                    CHANNELS 3 Zrotation Xrotation Yrotation
                    End Site
                    {
                        OFFSET -0.000000 0.000000 3.785984
                    }
                }
            }
        }
    }
    JOINT RightUpLeg
    {
        OFFSET -9.464960 0.000000 0.000000
        CHANNELS 3 Zrotation Xrotation Yrotation
        JOINT RightLeg
        {
            OFFSET -0.000000 -36.073700 0.000000
            CHANNELS 3 Zrotation Xrotation Yrotation
            JOINT RightFoot
            {
                OFFSET -0.000000 -40.808823 0.000000
                CHANNELS 3 Zrotation Xrotation Yrotation
                JOINT RightToeBase
                {
                    OFFSET -0.000000 -6.152224 14.197442
                    CHANNELS 3 Zrotation Xrotation Yrotation
                    End Site
                    {
                        OFFSET -0.000000 0.000000 3.785984
                    }
                }
            }
        }
    }
}
MOTION
Frames:    13
Frame Time:    0.004000
-19.067516    78.627174    -201.571136    0.184840    0.719558    13.684694    0.837395    -5.118132    0.381918    -2.669446    -2.564511    0.284681    0.559736    15.940159    -3.291694    2.125580    4.232180    -3.202568    13.775016    -0.273388    -6.341186    -10.153322    -3.218123    -2.944856    0.952677    4.317800    -2.336316    -10.497763    4.257993    0.864439    -13.744022    -0.656684    -1.548974    12.674886    -4.539281    -3.677317    -0.324431    2.103658    -3.005281    0.312100    2.102058    2.535759    -3.705029    4.754980    -0.415249    1.293881    -1.121876    -8.697691    3.284305    -3.951127    11.156597    0.000000    0.000000    0.000000    1.597038    11.830523    -0.910385    0.936623    -11.628375    1.823611    -2.836325    -1.194051    -28.391891    0.000000    0.000000    0.000000    
-19.066841    78.626076    -201.577850    0.187981    0.720221    13.682036    0.843031    -5.112987    0.380996    -2.673965    -2.564291    0.283673    0.582810    15.932460    -3.293720    2.092901    4.238918    -3.208396    13.768384    -0.282821    -6.334430    -10.132974    -3.175881    -2.955821    0.951322    4.313333    -2.341646    -10.520540    4.256096    0.834612    -13.742810    -0.641799    -1.556753    12.677103    -4.555707    -3.658124    -0.320529    2.108541    -2.993394    0.241028    2.105458    2.509749    -3.713276    4.756494    -0.434044    1.296318    -1.127722    -8.629243    3.272837    -3.952119    11.131498    0.000000    0.000000    0.000000    1.588278    11.822176    -0.895577    0.944089    -11.616497    1.828670    -2.866958    -1.195328    -28.398623    0.000000    0.000000    0.000000    
-19.065594    78.626839    -201.582626    0.189887    0.731624    13.675915    0.842109    -5.119104    0.384685    -2.669323    -2.568614    0.287234    0.567290    15.921894    -3.292802    2.111990    4.258942    -3.205777    13.767892    -0.288783    -6.340396    -10.125209    -3.219121    -2.957822    0.924471    4.338318    -2.334127    -10.469120    4.283545    0.805079    -13.754078    -0.639271    -1.563779    12.684657    -4.558882    -3.649838    -0.322962    2.102765    -2.992639    0.227810    2.099372    2.521187    -3.716519    4.733089    -0.448318    1.288286    -1.098973    -8.609922    3.255097    -3.971238    11.134811    0.000000    0.000000    0.000000    1.581890    11.801608    -0.905269    0.949849    -11.610172    1.828496    -2.892562    -1.184097    -28.400444    0.000000    0.000000    0.000000    
-19.066545    78.625084    -201.580994    0.192102    0.717373    13.668290    0.846242    -5.108994    0.386487    -2.669865    -2.563583    0.288926    0.576163    15.933087    -3.294737    2.098276    4.244244    -3.208960    13.771165    -0.276944    -6.343578    -10.126276    -3.189533    -2.958616    0.943516    4.311025    -2.339332    -10.469646    4.257077    0.800775    -13.752528    -0.647199    -1.557693    12.682135    -4.553937    -3.650984    -0.322693    2.106400    -2.991935    0.251721    2.103564    2.537178    -3.719824    4.758609    -0.420921    1.304387    -1.125569    -8.664618    3.273907    -3.968033    11.138990    0.000000    0.000000    0.000000    1.579444    11.821331    -0.894873    0.953620    -11.615804    1.858718    -2.903685    -1.196372    -28.421837    0.000000    0.000000    0.000000    
-19.067221    78.627052    -201.585678    0.196043    0.726635    13.669154    0.839887    -5.111997    0.386224    -2.663189    -2.568763    0.289136    0.564638    15.932500    -3.296096    2.115766    4.247438    -3.208540    13.761006    -0.280714    -6.349915    -10.114100    -3.197259    -2.958499    0.936003    4.316260    -2.335980    -10.449587    4.263761    0.784613    -13.761821    -0.637789    -1.557801    12.687794    -4.567498    -3.649167    -0.318671    2.110180    -2.988636    0.236809    2.107129    2.532133    -3.727198    4.752638    -0.428987    1.300921    -1.136837    -8.660068    3.236945    -3.935404    11.173100    0.000000    0.000000    0.000000    1.573434    11.810221    -0.875696    0.952271    -11.617200    1.829821    -2.905784    -1.181337    -28.416838    0.000000    0.000000    0.000000    
-19.068235    78.626862    -201.590775    0.189573    0.723448    13.673711    0.852099    -5.104772    0.382765    -2.666915    -2.573061    0.284979    0.559314    15.927505    -3.293773    2.125802    4.261836    -3.205307    13.760840    -0.288964    -6.351551    -10.109180    -3.206021    -2.961300    0.932805    4.312506    -2.334411    -10.453338    4.258648    0.798377    -13.756104    -0.635497    -1.560151    12.689308    -4.556264    -3.635850    -0.321238    2.094858    -2.993944    0.194406    2.090755    2.528957    -3.715840    4.732757    -0.451814    1.293184    -1.094754    -8.645914    3.295908    -3.974685    11.176381    0.000000    0.000000    0.000000    1.587954    11.800542    -0.893741    0.940107    -11.606700    1.798955    -2.919933    -1.175462    -28.358187    0.000000    0.000000    0.000000    
-19.067945    78.625916    -201.593781    0.190731    0.723430    13.674381    0.852428    -5.104983    0.383913    -2.641039    -2.533098    0.287487    0.492336    15.814363    -3.290915    2.168028    4.343515    -3.199741    13.751168    -0.319374    -6.297368    -10.117738    -3.107682    -3.004095    0.956720    4.242743    -2.347667    -10.500802    4.189855    0.790458    -13.839201    -0.636653    -1.627394    12.743364    -4.549170    -3.589683    -0.312700    2.082346    -2.967431    0.237693    2.079501    2.527839    -3.718195    4.732212    -0.462378    1.295295    -1.107312    -8.606074    3.270919    -3.969830    11.127670    0.000000    0.000000    0.000000    1.584360    11.805274    -0.882858    0.942108    -11.608697    1.832317    -2.935332    -1.197419    -28.407570    0.000000    0.000000    0.000000    
-19.069874    78.624603    -201.597778    0.189352    0.722095    13.677728    0.854551    -5.097766    0.380828    -2.640246    -2.537977    0.284502    0.508493    15.817331    -3.295814    2.146655    4.336518    -3.207020    13.760433    -0.305603    -6.286520    -10.119050    -3.156053    -3.025004    0.950172    4.257681    -2.342981    -10.507740    4.203943    0.797291    -13.840066    -0.634871    -1.620381    12.741569    -4.556444    -3.592714    -0.313330    2.076257    -2.965502    0.281893    2.074382    2.536055    -3.717225    4.731302    -0.454661    1.295133    -1.106246    -8.600023    3.296948    -3.979867    11.119916    0.000000    0.000000    0.000000    1.593044    11.798780    -0.896324    0.936732    -11.603335    1.819347    -2.925384    -1.191799    -28.391275    0.000000    0.000000    0.000000    
-19.069927    78.624321    -201.598267    0.194749    0.711344    13.665663    0.854327    -5.088101    0.385705    -2.637405    -2.534343    0.289461    0.501175    15.819325    -3.296615    2.157669    4.340549    -3.206718    13.772443    -0.211986    -6.253506    -10.129840    -3.227273    -3.088499    0.965394    4.241646    -2.327966    -10.480475    4.189645    0.782524    -13.844688    -0.636754    -1.623802    12.750232    -4.539756    -3.585123    -0.313786    2.074073    -2.959350    0.256649    2.071624    2.519944    -3.721354    4.749530    -0.445983    1.299126    -1.118137    -8.654675    3.250827    -3.970779    11.175656    0.000000    0.000000    0.000000    1.582937    11.813129    -0.874163    0.943792    -11.610273    1.812712    -2.914328    -1.197894    -28.390751    0.000000    0.000000    0.000000    
-19.070337    78.622986    -201.599701    0.191995    0.709408    13.665092    0.860472    -5.090936    0.386140    -2.636613    -2.525340    0.289812    0.511631    15.821980    -3.302271    2.144418    4.323202    -3.213712    13.774323    -0.220866    -6.251085    -10.129947    -3.222214    -3.094639    0.968184    4.236171    -2.329045    -10.478163    4.183455    0.791283    -13.843224    -0.633571    -1.627048    12.750149    -4.528368    -3.578077    -0.311059    2.061941    -2.954947    0.214209    2.058625    2.501826    -3.720348    4.747212    -0.437897    1.297999    -1.107947    -8.581652    3.269579    -3.988266    11.094921    0.000000    0.000000    0.000000    1.584280    11.816667    -0.871601    0.941151    -11.614823    1.850042    -2.880214    -1.214838    -28.429512    0.000000    0.000000    0.000000    
-19.071547    78.623543    -201.608307    0.195967    0.725422    13.671638    0.859299    -5.094733    0.383431    -2.652428    -2.537323    0.286622    0.523592    15.819575    -3.304291    2.153265    4.339957    -3.215232    13.791327    -0.216717    -6.255321    -10.137356    -3.226353    -3.100983    0.974911    4.230170    -2.322465    -10.434532    4.178752    0.781046    -13.827978    -0.633443    -1.616613    12.748148    -4.522674    -3.587687    -0.321504    2.063942    -2.951836    0.257498    2.061310    2.502985    -3.725716    4.712242    -0.462801    1.291866    -1.077600    -8.597230    3.323122    -3.994032    11.144885    0.000000    0.000000    0.000000    1.575515    11.793371    -0.863434    0.952471    -11.608205    1.825690    -2.963640    -1.185218    -28.421261    0.000000    0.000000    0.000000    
-19.071411    78.621689    -201.608856    0.195657    0.718173    13.666691    0.864835    -5.089016    0.385471    -2.647993    -2.535623    0.288469    0.520378    15.816880    -3.301053    2.152654    4.344954    -3.212051    13.787945    -0.213904    -6.254004    -10.138636    -3.226259    -3.107958    0.984632    4.216581    -2.323152    -10.443051    4.164443    0.790464    -13.837198    -0.618110    -1.622194    12.756393    -4.508509    -3.573586    -0.321167    2.062188    -2.949512    0.263804    2.059695    2.510681    -3.723893    4.725187    -0.452664    1.292961    -1.090663    -8.613095    3.293598    -3.989545    11.129633    0.000000    0.000000    0.000000    1.580604    11.798399    -0.872798    0.941530    -11.604547    1.834697    -2.942548    -1.200436    -28.396259    0.000000    0.000000    0.000000    
-19.069910    78.622665    -201.609680    0.197469    0.715518    13.662555    0.866531    -5.089975    0.385414    -2.643746    -2.530398    0.288665    0.504857    15.818140    -3.301888    2.170640    4.346287    -3.210994    13.781674    -0.234076    -6.252611    -10.138553    -3.262101    -3.105934    0.981252    4.237084    -2.323686    -10.436139    4.184761    0.792493    -13.836059    -0.628246    -1.611910    12.750681    -4.512135    -3.577659    -0.323907    2.071436    -2.949452    0.273830    2.069113    2.520609    -3.726647    4.732221    -0.449047    1.293734    -1.097485    -8.652185    3.340007    -3.984271    11.180202    0.000000    0.000000    0.000000    1.570040    11.796851    -0.863803    0.953811    -11.597334    1.862758    -2.928678    -1.206555    -28.448179    0.000000    0.000000    0.000000    
